<mxfile host="app.diagrams.net" modified="2023-11-21T17:31:26.670Z" agent="Mozilla/5.0 (Windows NT 10.0; Win64; x64) AppleWebKit/537.36 (KHTML, like Gecko) Chrome/119.0.0.0 Safari/537.36" etag="aJX859SjOFrIgCDtdJsJ" version="22.1.3" type="device">
  <diagram id="C5RBs43oDa-KdzZeNtuy" name="Page-1">
    <mxGraphModel dx="1366" dy="762" grid="1" gridSize="10" guides="1" tooltips="1" connect="1" arrows="1" fold="1" page="1" pageScale="1" pageWidth="827" pageHeight="1169" math="0" shadow="0">
      <root>
        <mxCell id="WIyWlLk6GJQsqaUBKTNV-0" />
        <mxCell id="WIyWlLk6GJQsqaUBKTNV-1" parent="WIyWlLk6GJQsqaUBKTNV-0" />
        <mxCell id="WIyWlLk6GJQsqaUBKTNV-2" value="" style="rounded=0;html=1;jettySize=auto;orthogonalLoop=1;fontSize=11;endArrow=block;endFill=0;endSize=8;strokeWidth=1;shadow=0;labelBackgroundColor=none;edgeStyle=orthogonalEdgeStyle;" parent="WIyWlLk6GJQsqaUBKTNV-1" source="WIyWlLk6GJQsqaUBKTNV-3" edge="1">
          <mxGeometry relative="1" as="geometry">
            <mxPoint x="420" y="110" as="targetPoint" />
          </mxGeometry>
        </mxCell>
        <mxCell id="WIyWlLk6GJQsqaUBKTNV-3" value="Начало работы робота" style="rounded=1;whiteSpace=wrap;html=1;fontSize=12;glass=0;strokeWidth=1;shadow=0;" parent="WIyWlLk6GJQsqaUBKTNV-1" vertex="1">
          <mxGeometry x="360" y="20" width="120" height="40" as="geometry" />
        </mxCell>
        <mxCell id="aJ7ux7aC-X-UFRYkZwZB-3" style="edgeStyle=orthogonalEdgeStyle;rounded=0;orthogonalLoop=1;jettySize=auto;html=1;entryX=0.5;entryY=0;entryDx=0;entryDy=0;" parent="WIyWlLk6GJQsqaUBKTNV-1" source="aJ7ux7aC-X-UFRYkZwZB-0" target="aJ7ux7aC-X-UFRYkZwZB-1" edge="1">
          <mxGeometry relative="1" as="geometry" />
        </mxCell>
        <mxCell id="aJ7ux7aC-X-UFRYkZwZB-0" value="Ввод карты, длинны путей" style="shape=parallelogram;perimeter=parallelogramPerimeter;whiteSpace=wrap;html=1;fixedSize=1;" parent="WIyWlLk6GJQsqaUBKTNV-1" vertex="1">
          <mxGeometry x="315" y="110" width="210" height="60" as="geometry" />
        </mxCell>
        <mxCell id="aJ7ux7aC-X-UFRYkZwZB-6" style="edgeStyle=orthogonalEdgeStyle;rounded=0;orthogonalLoop=1;jettySize=auto;html=1;entryX=0.5;entryY=0;entryDx=0;entryDy=0;exitX=0.5;exitY=1;exitDx=0;exitDy=0;" parent="WIyWlLk6GJQsqaUBKTNV-1" source="aJ7ux7aC-X-UFRYkZwZB-19" target="aJ7ux7aC-X-UFRYkZwZB-7" edge="1">
          <mxGeometry relative="1" as="geometry">
            <mxPoint x="420" y="510" as="targetPoint" />
          </mxGeometry>
        </mxCell>
        <mxCell id="aJ7ux7aC-X-UFRYkZwZB-21" value="Тело цикла" style="edgeLabel;html=1;align=center;verticalAlign=middle;resizable=0;points=[];" parent="aJ7ux7aC-X-UFRYkZwZB-6" vertex="1" connectable="0">
          <mxGeometry x="-0.2375" y="1" relative="1" as="geometry">
            <mxPoint x="-1" y="-12" as="offset" />
          </mxGeometry>
        </mxCell>
        <mxCell id="aJ7ux7aC-X-UFRYkZwZB-82" style="edgeStyle=orthogonalEdgeStyle;rounded=0;orthogonalLoop=1;jettySize=auto;html=1;entryX=0.5;entryY=0;entryDx=0;entryDy=0;" parent="WIyWlLk6GJQsqaUBKTNV-1" source="aJ7ux7aC-X-UFRYkZwZB-1" target="aJ7ux7aC-X-UFRYkZwZB-19" edge="1">
          <mxGeometry relative="1" as="geometry" />
        </mxCell>
        <mxCell id="aJ7ux7aC-X-UFRYkZwZB-1" value="Проехать до ближайшей точки = узнать своё местоположение" style="shape=process;whiteSpace=wrap;html=1;backgroundOutline=1;" parent="WIyWlLk6GJQsqaUBKTNV-1" vertex="1">
          <mxGeometry x="360" y="210" width="120" height="90" as="geometry" />
        </mxCell>
        <mxCell id="aJ7ux7aC-X-UFRYkZwZB-63" style="edgeStyle=orthogonalEdgeStyle;rounded=0;orthogonalLoop=1;jettySize=auto;html=1;entryX=0.5;entryY=0;entryDx=0;entryDy=0;" parent="WIyWlLk6GJQsqaUBKTNV-1" source="aJ7ux7aC-X-UFRYkZwZB-7" target="aJ7ux7aC-X-UFRYkZwZB-86" edge="1">
          <mxGeometry relative="1" as="geometry">
            <mxPoint x="420" y="600" as="targetPoint" />
          </mxGeometry>
        </mxCell>
        <mxCell id="aJ7ux7aC-X-UFRYkZwZB-64" value="Да" style="edgeLabel;html=1;align=center;verticalAlign=middle;resizable=0;points=[];" parent="aJ7ux7aC-X-UFRYkZwZB-63" vertex="1" connectable="0">
          <mxGeometry x="-0.624" y="-2" relative="1" as="geometry">
            <mxPoint x="2" y="2" as="offset" />
          </mxGeometry>
        </mxCell>
        <mxCell id="aJ7ux7aC-X-UFRYkZwZB-70" style="edgeStyle=orthogonalEdgeStyle;rounded=0;orthogonalLoop=1;jettySize=auto;html=1;exitX=1;exitY=0.5;exitDx=0;exitDy=0;endArrow=none;endFill=0;" parent="WIyWlLk6GJQsqaUBKTNV-1" source="aJ7ux7aC-X-UFRYkZwZB-7" edge="1">
          <mxGeometry relative="1" as="geometry">
            <mxPoint x="420" y="440" as="targetPoint" />
            <Array as="points">
              <mxPoint x="490" y="510" />
              <mxPoint x="490" y="440" />
            </Array>
          </mxGeometry>
        </mxCell>
        <mxCell id="aJ7ux7aC-X-UFRYkZwZB-71" value="нет" style="edgeLabel;html=1;align=center;verticalAlign=middle;resizable=0;points=[];" parent="aJ7ux7aC-X-UFRYkZwZB-70" vertex="1" connectable="0">
          <mxGeometry x="-0.1156" y="2" relative="1" as="geometry">
            <mxPoint x="2" y="55" as="offset" />
          </mxGeometry>
        </mxCell>
        <mxCell id="aJ7ux7aC-X-UFRYkZwZB-7" value="Есть заказ?" style="rhombus;whiteSpace=wrap;html=1;" parent="WIyWlLk6GJQsqaUBKTNV-1" vertex="1">
          <mxGeometry x="370" y="460" width="100" height="100" as="geometry" />
        </mxCell>
        <mxCell id="aJ7ux7aC-X-UFRYkZwZB-61" style="edgeStyle=orthogonalEdgeStyle;rounded=0;orthogonalLoop=1;jettySize=auto;html=1;entryX=0;entryY=0.5;entryDx=0;entryDy=0;" parent="WIyWlLk6GJQsqaUBKTNV-1" source="aJ7ux7aC-X-UFRYkZwZB-19" target="aJ7ux7aC-X-UFRYkZwZB-60" edge="1">
          <mxGeometry relative="1" as="geometry" />
        </mxCell>
        <mxCell id="aJ7ux7aC-X-UFRYkZwZB-19" value="Пока: работает программа" style="shape=hexagon;perimeter=hexagonPerimeter2;whiteSpace=wrap;html=1;fixedSize=1;" parent="WIyWlLk6GJQsqaUBKTNV-1" vertex="1">
          <mxGeometry x="360" y="330" width="120" height="80" as="geometry" />
        </mxCell>
        <mxCell id="aJ7ux7aC-X-UFRYkZwZB-48" style="edgeStyle=orthogonalEdgeStyle;rounded=0;orthogonalLoop=1;jettySize=auto;html=1;" parent="WIyWlLk6GJQsqaUBKTNV-1" source="aJ7ux7aC-X-UFRYkZwZB-30" target="aJ7ux7aC-X-UFRYkZwZB-34" edge="1">
          <mxGeometry relative="1" as="geometry" />
        </mxCell>
        <mxCell id="aJ7ux7aC-X-UFRYkZwZB-30" value="Определить по таблице, как ехать, до точки сбора" style="shape=process;whiteSpace=wrap;html=1;backgroundOutline=1;" parent="WIyWlLk6GJQsqaUBKTNV-1" vertex="1">
          <mxGeometry x="360" y="790" width="120" height="60" as="geometry" />
        </mxCell>
        <mxCell id="aJ7ux7aC-X-UFRYkZwZB-49" style="edgeStyle=orthogonalEdgeStyle;rounded=0;orthogonalLoop=1;jettySize=auto;html=1;" parent="WIyWlLk6GJQsqaUBKTNV-1" source="aJ7ux7aC-X-UFRYkZwZB-34" target="aJ7ux7aC-X-UFRYkZwZB-37" edge="1">
          <mxGeometry relative="1" as="geometry" />
        </mxCell>
        <mxCell id="aJ7ux7aC-X-UFRYkZwZB-34" value="Ехать: до точки сбора" style="shape=process;whiteSpace=wrap;html=1;backgroundOutline=1;" parent="WIyWlLk6GJQsqaUBKTNV-1" vertex="1">
          <mxGeometry x="360" y="870" width="120" height="60" as="geometry" />
        </mxCell>
        <mxCell id="aJ7ux7aC-X-UFRYkZwZB-46" style="edgeStyle=orthogonalEdgeStyle;rounded=0;orthogonalLoop=1;jettySize=auto;html=1;exitX=0.5;exitY=1;exitDx=0;exitDy=0;entryX=0.5;entryY=0;entryDx=0;entryDy=0;" parent="WIyWlLk6GJQsqaUBKTNV-1" source="aJ7ux7aC-X-UFRYkZwZB-37" target="aJ7ux7aC-X-UFRYkZwZB-39" edge="1">
          <mxGeometry relative="1" as="geometry" />
        </mxCell>
        <mxCell id="aJ7ux7aC-X-UFRYkZwZB-37" value="Вывести статус: доехали до сбора" style="shape=parallelogram;perimeter=parallelogramPerimeter;whiteSpace=wrap;html=1;fixedSize=1;" parent="WIyWlLk6GJQsqaUBKTNV-1" vertex="1">
          <mxGeometry x="355" y="950" width="130" height="60" as="geometry" />
        </mxCell>
        <mxCell id="aJ7ux7aC-X-UFRYkZwZB-50" style="edgeStyle=orthogonalEdgeStyle;rounded=0;orthogonalLoop=1;jettySize=auto;html=1;" parent="WIyWlLk6GJQsqaUBKTNV-1" source="aJ7ux7aC-X-UFRYkZwZB-39" target="aJ7ux7aC-X-UFRYkZwZB-42" edge="1">
          <mxGeometry relative="1" as="geometry" />
        </mxCell>
        <mxCell id="aJ7ux7aC-X-UFRYkZwZB-39" value="Ждать секунд 10" style="rounded=0;whiteSpace=wrap;html=1;" parent="WIyWlLk6GJQsqaUBKTNV-1" vertex="1">
          <mxGeometry x="360" y="1030" width="120" height="60" as="geometry" />
        </mxCell>
        <mxCell id="aJ7ux7aC-X-UFRYkZwZB-41" style="edgeStyle=orthogonalEdgeStyle;rounded=0;orthogonalLoop=1;jettySize=auto;html=1;entryX=0.5;entryY=0;entryDx=0;entryDy=0;" parent="WIyWlLk6GJQsqaUBKTNV-1" source="aJ7ux7aC-X-UFRYkZwZB-42" target="aJ7ux7aC-X-UFRYkZwZB-45" edge="1">
          <mxGeometry relative="1" as="geometry" />
        </mxCell>
        <mxCell id="aJ7ux7aC-X-UFRYkZwZB-42" value="Определить по таблице, как ехать, до точки сброса" style="shape=process;whiteSpace=wrap;html=1;backgroundOutline=1;" parent="WIyWlLk6GJQsqaUBKTNV-1" vertex="1">
          <mxGeometry x="360" y="1110" width="120" height="60" as="geometry" />
        </mxCell>
        <mxCell id="aJ7ux7aC-X-UFRYkZwZB-45" value="Ехать: до точки сброса" style="shape=process;whiteSpace=wrap;html=1;backgroundOutline=1;" parent="WIyWlLk6GJQsqaUBKTNV-1" vertex="1">
          <mxGeometry x="360" y="1190" width="120" height="60" as="geometry" />
        </mxCell>
        <mxCell id="aJ7ux7aC-X-UFRYkZwZB-56" style="edgeStyle=orthogonalEdgeStyle;rounded=0;orthogonalLoop=1;jettySize=auto;html=1;" parent="WIyWlLk6GJQsqaUBKTNV-1" source="aJ7ux7aC-X-UFRYkZwZB-51" target="aJ7ux7aC-X-UFRYkZwZB-53" edge="1">
          <mxGeometry relative="1" as="geometry" />
        </mxCell>
        <mxCell id="aJ7ux7aC-X-UFRYkZwZB-51" value="Вывести статус: доехали до сброса" style="shape=parallelogram;perimeter=parallelogramPerimeter;whiteSpace=wrap;html=1;fixedSize=1;" parent="WIyWlLk6GJQsqaUBKTNV-1" vertex="1">
          <mxGeometry x="355" y="1270" width="130" height="60" as="geometry" />
        </mxCell>
        <mxCell id="aJ7ux7aC-X-UFRYkZwZB-52" style="edgeStyle=orthogonalEdgeStyle;rounded=0;orthogonalLoop=1;jettySize=auto;html=1;entryX=0.509;entryY=0.074;entryDx=0;entryDy=0;entryPerimeter=0;" parent="WIyWlLk6GJQsqaUBKTNV-1" source="aJ7ux7aC-X-UFRYkZwZB-45" target="aJ7ux7aC-X-UFRYkZwZB-51" edge="1">
          <mxGeometry relative="1" as="geometry" />
        </mxCell>
        <mxCell id="aJ7ux7aC-X-UFRYkZwZB-58" style="edgeStyle=orthogonalEdgeStyle;rounded=0;orthogonalLoop=1;jettySize=auto;html=1;entryX=0.5;entryY=0;entryDx=0;entryDy=0;" parent="WIyWlLk6GJQsqaUBKTNV-1" source="aJ7ux7aC-X-UFRYkZwZB-53" target="aJ7ux7aC-X-UFRYkZwZB-57" edge="1">
          <mxGeometry relative="1" as="geometry" />
        </mxCell>
        <mxCell id="aJ7ux7aC-X-UFRYkZwZB-53" value="Сброс" style="rounded=0;whiteSpace=wrap;html=1;" parent="WIyWlLk6GJQsqaUBKTNV-1" vertex="1">
          <mxGeometry x="360" y="1350" width="120" height="60" as="geometry" />
        </mxCell>
        <mxCell id="aJ7ux7aC-X-UFRYkZwZB-59" style="edgeStyle=orthogonalEdgeStyle;rounded=0;orthogonalLoop=1;jettySize=auto;html=1;entryX=0;entryY=0.5;entryDx=0;entryDy=0;exitX=0.5;exitY=1;exitDx=0;exitDy=0;" parent="WIyWlLk6GJQsqaUBKTNV-1" source="aJ7ux7aC-X-UFRYkZwZB-57" target="aJ7ux7aC-X-UFRYkZwZB-19" edge="1">
          <mxGeometry relative="1" as="geometry">
            <mxPoint x="420" y="1640" as="sourcePoint" />
            <mxPoint x="115" y="410" as="targetPoint" />
            <Array as="points">
              <mxPoint x="420" y="1520" />
              <mxPoint x="240" y="1520" />
              <mxPoint x="240" y="370" />
            </Array>
          </mxGeometry>
        </mxCell>
        <mxCell id="aJ7ux7aC-X-UFRYkZwZB-57" value="Вывести статус: Готово" style="shape=parallelogram;perimeter=parallelogramPerimeter;whiteSpace=wrap;html=1;fixedSize=1;" parent="WIyWlLk6GJQsqaUBKTNV-1" vertex="1">
          <mxGeometry x="355" y="1430" width="130" height="60" as="geometry" />
        </mxCell>
        <mxCell id="aJ7ux7aC-X-UFRYkZwZB-60" value="Конец работы робота" style="rounded=1;whiteSpace=wrap;html=1;" parent="WIyWlLk6GJQsqaUBKTNV-1" vertex="1">
          <mxGeometry x="510" y="350" width="120" height="40" as="geometry" />
        </mxCell>
        <mxCell id="d0SV-odps6hGsu_K8Ccp-1" style="edgeStyle=orthogonalEdgeStyle;rounded=0;orthogonalLoop=1;jettySize=auto;html=1;entryX=0.5;entryY=0;entryDx=0;entryDy=0;" edge="1" parent="WIyWlLk6GJQsqaUBKTNV-1" source="aJ7ux7aC-X-UFRYkZwZB-84" target="d0SV-odps6hGsu_K8Ccp-17">
          <mxGeometry relative="1" as="geometry" />
        </mxCell>
        <mxCell id="aJ7ux7aC-X-UFRYkZwZB-84" value="Начало работы приложения" style="rounded=1;whiteSpace=wrap;html=1;" parent="WIyWlLk6GJQsqaUBKTNV-1" vertex="1">
          <mxGeometry x="360" y="1550" width="120" height="30" as="geometry" />
        </mxCell>
        <mxCell id="aJ7ux7aC-X-UFRYkZwZB-89" style="edgeStyle=orthogonalEdgeStyle;rounded=0;orthogonalLoop=1;jettySize=auto;html=1;entryX=0.5;entryY=0;entryDx=0;entryDy=0;" parent="WIyWlLk6GJQsqaUBKTNV-1" source="aJ7ux7aC-X-UFRYkZwZB-86" target="aJ7ux7aC-X-UFRYkZwZB-30" edge="1">
          <mxGeometry relative="1" as="geometry" />
        </mxCell>
        <mxCell id="aJ7ux7aC-X-UFRYkZwZB-86" value="Вывести статус: &lt;br&gt;начал выполнение" style="shape=parallelogram;perimeter=parallelogramPerimeter;whiteSpace=wrap;html=1;fixedSize=1;" parent="WIyWlLk6GJQsqaUBKTNV-1" vertex="1">
          <mxGeometry x="347.5" y="700" width="145" height="60" as="geometry" />
        </mxCell>
        <mxCell id="d0SV-odps6hGsu_K8Ccp-28" style="edgeStyle=orthogonalEdgeStyle;rounded=0;orthogonalLoop=1;jettySize=auto;html=1;entryX=0.5;entryY=0;entryDx=0;entryDy=0;" edge="1" parent="WIyWlLk6GJQsqaUBKTNV-1" source="d0SV-odps6hGsu_K8Ccp-4" target="d0SV-odps6hGsu_K8Ccp-6">
          <mxGeometry relative="1" as="geometry" />
        </mxCell>
        <mxCell id="d0SV-odps6hGsu_K8Ccp-4" value="Вывод кнопки &quot;Сделать заказ&quot;&lt;br&gt;в центре" style="shape=parallelogram;perimeter=parallelogramPerimeter;whiteSpace=wrap;html=1;fixedSize=1;" vertex="1" parent="WIyWlLk6GJQsqaUBKTNV-1">
          <mxGeometry x="360" y="2020" width="120" height="60" as="geometry" />
        </mxCell>
        <mxCell id="d0SV-odps6hGsu_K8Ccp-9" style="edgeStyle=orthogonalEdgeStyle;rounded=0;orthogonalLoop=1;jettySize=auto;html=1;entryX=0.5;entryY=0;entryDx=0;entryDy=0;" edge="1" parent="WIyWlLk6GJQsqaUBKTNV-1" source="d0SV-odps6hGsu_K8Ccp-6" target="d0SV-odps6hGsu_K8Ccp-8">
          <mxGeometry relative="1" as="geometry" />
        </mxCell>
        <mxCell id="d0SV-odps6hGsu_K8Ccp-10" value="Да" style="edgeLabel;html=1;align=center;verticalAlign=middle;resizable=0;points=[];" vertex="1" connectable="0" parent="d0SV-odps6hGsu_K8Ccp-9">
          <mxGeometry x="-0.1" relative="1" as="geometry">
            <mxPoint as="offset" />
          </mxGeometry>
        </mxCell>
        <mxCell id="d0SV-odps6hGsu_K8Ccp-26" style="edgeStyle=orthogonalEdgeStyle;rounded=0;orthogonalLoop=1;jettySize=auto;html=1;entryX=0.5;entryY=1;entryDx=0;entryDy=0;" edge="1" parent="WIyWlLk6GJQsqaUBKTNV-1" source="d0SV-odps6hGsu_K8Ccp-6" target="d0SV-odps6hGsu_K8Ccp-25">
          <mxGeometry relative="1" as="geometry" />
        </mxCell>
        <mxCell id="d0SV-odps6hGsu_K8Ccp-6" value="Делаем заказ?" style="rhombus;whiteSpace=wrap;html=1;" vertex="1" parent="WIyWlLk6GJQsqaUBKTNV-1">
          <mxGeometry x="380" y="2130" width="80" height="80" as="geometry" />
        </mxCell>
        <mxCell id="d0SV-odps6hGsu_K8Ccp-12" style="edgeStyle=orthogonalEdgeStyle;rounded=0;orthogonalLoop=1;jettySize=auto;html=1;" edge="1" parent="WIyWlLk6GJQsqaUBKTNV-1" source="d0SV-odps6hGsu_K8Ccp-8" target="d0SV-odps6hGsu_K8Ccp-13">
          <mxGeometry relative="1" as="geometry">
            <mxPoint x="420" y="2150" as="targetPoint" />
          </mxGeometry>
        </mxCell>
        <mxCell id="d0SV-odps6hGsu_K8Ccp-8" value="Ввод координат &quot;откуда&quot; и &quot;куда&quot;" style="shape=parallelogram;perimeter=parallelogramPerimeter;whiteSpace=wrap;html=1;fixedSize=1;" vertex="1" parent="WIyWlLk6GJQsqaUBKTNV-1">
          <mxGeometry x="360" y="2250" width="120" height="60" as="geometry" />
        </mxCell>
        <mxCell id="d0SV-odps6hGsu_K8Ccp-15" style="edgeStyle=orthogonalEdgeStyle;rounded=0;orthogonalLoop=1;jettySize=auto;html=1;exitX=0.5;exitY=1;exitDx=0;exitDy=0;endArrow=none;endFill=0;entryX=0;entryY=0.5;entryDx=0;entryDy=0;" edge="1" parent="WIyWlLk6GJQsqaUBKTNV-1" source="d0SV-odps6hGsu_K8Ccp-36" target="d0SV-odps6hGsu_K8Ccp-17">
          <mxGeometry relative="1" as="geometry">
            <mxPoint x="420" y="2000" as="targetPoint" />
            <mxPoint x="158.95" y="2620" as="sourcePoint" />
            <Array as="points">
              <mxPoint x="420" y="2500" />
              <mxPoint x="310" y="2500" />
              <mxPoint x="310" y="1670" />
            </Array>
          </mxGeometry>
        </mxCell>
        <mxCell id="d0SV-odps6hGsu_K8Ccp-37" style="edgeStyle=orthogonalEdgeStyle;rounded=0;orthogonalLoop=1;jettySize=auto;html=1;entryX=0.5;entryY=0;entryDx=0;entryDy=0;" edge="1" parent="WIyWlLk6GJQsqaUBKTNV-1" source="d0SV-odps6hGsu_K8Ccp-13" target="d0SV-odps6hGsu_K8Ccp-36">
          <mxGeometry relative="1" as="geometry" />
        </mxCell>
        <mxCell id="d0SV-odps6hGsu_K8Ccp-13" value="Вывод: запрос &lt;br&gt;готов" style="shape=parallelogram;perimeter=parallelogramPerimeter;whiteSpace=wrap;html=1;fixedSize=1;" vertex="1" parent="WIyWlLk6GJQsqaUBKTNV-1">
          <mxGeometry x="360" y="2330" width="120" height="60" as="geometry" />
        </mxCell>
        <mxCell id="d0SV-odps6hGsu_K8Ccp-35" style="edgeStyle=orthogonalEdgeStyle;rounded=0;orthogonalLoop=1;jettySize=auto;html=1;entryX=0.5;entryY=0;entryDx=0;entryDy=0;exitX=0.5;exitY=1;exitDx=0;exitDy=0;" edge="1" parent="WIyWlLk6GJQsqaUBKTNV-1" source="d0SV-odps6hGsu_K8Ccp-40" target="d0SV-odps6hGsu_K8Ccp-4">
          <mxGeometry relative="1" as="geometry">
            <mxPoint x="420" y="1980" as="sourcePoint" />
            <Array as="points">
              <mxPoint x="530" y="1950" />
              <mxPoint x="420" y="1950" />
            </Array>
          </mxGeometry>
        </mxCell>
        <mxCell id="d0SV-odps6hGsu_K8Ccp-39" style="edgeStyle=orthogonalEdgeStyle;rounded=0;orthogonalLoop=1;jettySize=auto;html=1;entryX=0.5;entryY=0;entryDx=0;entryDy=0;" edge="1" parent="WIyWlLk6GJQsqaUBKTNV-1" source="d0SV-odps6hGsu_K8Ccp-17" target="d0SV-odps6hGsu_K8Ccp-38">
          <mxGeometry relative="1" as="geometry" />
        </mxCell>
        <mxCell id="d0SV-odps6hGsu_K8Ccp-17" value="Пока приложение работает" style="shape=hexagon;perimeter=hexagonPerimeter2;whiteSpace=wrap;html=1;fixedSize=1;" vertex="1" parent="WIyWlLk6GJQsqaUBKTNV-1">
          <mxGeometry x="360" y="1630" width="120" height="80" as="geometry" />
        </mxCell>
        <mxCell id="d0SV-odps6hGsu_K8Ccp-23" value="Конец работы приложения" style="rounded=1;whiteSpace=wrap;html=1;" vertex="1" parent="WIyWlLk6GJQsqaUBKTNV-1">
          <mxGeometry x="510" y="1655" width="120" height="30" as="geometry" />
        </mxCell>
        <mxCell id="d0SV-odps6hGsu_K8Ccp-24" style="edgeStyle=orthogonalEdgeStyle;rounded=0;orthogonalLoop=1;jettySize=auto;html=1;entryX=0;entryY=0.5;entryDx=0;entryDy=0;" edge="1" parent="WIyWlLk6GJQsqaUBKTNV-1" source="d0SV-odps6hGsu_K8Ccp-17" target="d0SV-odps6hGsu_K8Ccp-23">
          <mxGeometry relative="1" as="geometry" />
        </mxCell>
        <mxCell id="d0SV-odps6hGsu_K8Ccp-27" style="edgeStyle=orthogonalEdgeStyle;rounded=0;orthogonalLoop=1;jettySize=auto;html=1;endArrow=none;endFill=0;" edge="1" parent="WIyWlLk6GJQsqaUBKTNV-1" source="d0SV-odps6hGsu_K8Ccp-25">
          <mxGeometry relative="1" as="geometry">
            <mxPoint x="420" y="2090" as="targetPoint" />
            <Array as="points">
              <mxPoint x="530" y="2090" />
            </Array>
          </mxGeometry>
        </mxCell>
        <mxCell id="d0SV-odps6hGsu_K8Ccp-25" value="Вывод статуса &lt;br&gt;робота слева" style="shape=parallelogram;perimeter=parallelogramPerimeter;whiteSpace=wrap;html=1;fixedSize=1;" vertex="1" parent="WIyWlLk6GJQsqaUBKTNV-1">
          <mxGeometry x="470" y="2110" width="120" height="40" as="geometry" />
        </mxCell>
        <mxCell id="d0SV-odps6hGsu_K8Ccp-36" value="Поместить заказ в очередь" style="rounded=0;whiteSpace=wrap;html=1;" vertex="1" parent="WIyWlLk6GJQsqaUBKTNV-1">
          <mxGeometry x="360" y="2420" width="120" height="60" as="geometry" />
        </mxCell>
        <mxCell id="d0SV-odps6hGsu_K8Ccp-44" style="edgeStyle=orthogonalEdgeStyle;rounded=0;orthogonalLoop=1;jettySize=auto;html=1;entryX=0.5;entryY=0;entryDx=0;entryDy=0;" edge="1" parent="WIyWlLk6GJQsqaUBKTNV-1" source="d0SV-odps6hGsu_K8Ccp-38" target="d0SV-odps6hGsu_K8Ccp-40">
          <mxGeometry relative="1" as="geometry">
            <Array as="points">
              <mxPoint x="530" y="1785" />
            </Array>
          </mxGeometry>
        </mxCell>
        <mxCell id="d0SV-odps6hGsu_K8Ccp-45" value="Да" style="edgeLabel;html=1;align=center;verticalAlign=middle;resizable=0;points=[];" vertex="1" connectable="0" parent="d0SV-odps6hGsu_K8Ccp-44">
          <mxGeometry x="-0.1904" relative="1" as="geometry">
            <mxPoint as="offset" />
          </mxGeometry>
        </mxCell>
        <mxCell id="d0SV-odps6hGsu_K8Ccp-46" style="edgeStyle=orthogonalEdgeStyle;rounded=0;orthogonalLoop=1;jettySize=auto;html=1;exitX=0;exitY=0.5;exitDx=0;exitDy=0;endArrow=none;endFill=0;" edge="1" parent="WIyWlLk6GJQsqaUBKTNV-1" source="d0SV-odps6hGsu_K8Ccp-38">
          <mxGeometry relative="1" as="geometry">
            <mxPoint x="420.0000000000001" y="1950" as="targetPoint" />
            <Array as="points">
              <mxPoint x="340" y="1785" />
              <mxPoint x="340" y="1950" />
            </Array>
          </mxGeometry>
        </mxCell>
        <mxCell id="d0SV-odps6hGsu_K8Ccp-38" value="Робот готов к выполнению &lt;br&gt;заказа?" style="rhombus;whiteSpace=wrap;html=1;" vertex="1" parent="WIyWlLk6GJQsqaUBKTNV-1">
          <mxGeometry x="360" y="1730" width="120" height="110" as="geometry" />
        </mxCell>
        <mxCell id="d0SV-odps6hGsu_K8Ccp-40" value="Отправить &lt;br&gt;на робота &lt;br&gt;первый в &lt;br&gt;очереди заказ" style="shape=parallelogram;perimeter=parallelogramPerimeter;whiteSpace=wrap;html=1;fixedSize=1;" vertex="1" parent="WIyWlLk6GJQsqaUBKTNV-1">
          <mxGeometry x="470" y="1820" width="120" height="90" as="geometry" />
        </mxCell>
      </root>
    </mxGraphModel>
  </diagram>
</mxfile>
